<svg width="22" height="22" viewBox="0 0 22 22" fill="none" xmlns="http://www.w3.org/2000/svg">
<path fill-rule="evenodd" clip-rule="evenodd" d="M2.4 2.4C1 3.812 1 6.074 1 10.6V11.4L1 11.5136C0.999902 15.97 0.999852 18.2117 2.4 19.6C3.812 21 6.074 21 10.6 21H11.4H11.5131C15.9698 21.0001 18.2117 21.0001 19.6 19.6C21 18.188 21 15.926 21 11.4V10.6V10.4869C21.0001 6.03015 21.0001 3.7883 19.6 2.4C18.188 1 15.926 1 11.4 1H10.6L10.4864 1C6.03 0.999902 3.78825 0.999852 2.4 2.4ZM11.0194 11.1972C12.6876 11.1972 14.0477 9.83717 14.0477 8.16889C14.0477 6.50061 12.6876 5.14061 11.0194 5.14061C9.33296 5.14061 7.97295 6.50061 7.97295 8.16889C7.97295 9.83717 9.33296 11.1972 11.0194 11.1972ZM11.0194 6.91768C11.7084 6.91768 12.2706 7.47982 12.2706 8.16889C12.2706 8.85796 11.7084 9.4201 11.0194 9.4201C10.3303 9.4201 9.76816 8.85796 9.76816 8.16889C9.75003 7.47982 10.3122 6.91768 11.0194 6.91768ZM12.2343 13.6815C12.8509 13.5364 13.4493 13.3007 13.9933 12.9561C14.4103 12.7023 14.5372 12.1401 14.2653 11.7231C14.0114 11.306 13.4493 11.1791 13.0322 11.4511C11.7991 12.2308 10.1852 12.2308 8.95216 11.4511C8.53509 11.1972 7.99109 11.306 7.71909 11.7231C7.48336 12.1401 7.61029 12.6841 8.02736 12.938C8.57137 13.2825 9.16977 13.5183 9.7863 13.6634L8.0999 15.3498C7.75536 15.6943 7.75536 16.2565 8.0999 16.601C8.28123 16.7823 8.49883 16.8548 8.73456 16.8548C8.9703 16.8548 9.1879 16.7641 9.36923 16.601L11.0375 14.9327L12.7058 16.601C13.0503 16.9455 13.6124 16.9455 13.957 16.601C14.3015 16.2565 14.3015 15.6943 13.957 15.3498L12.2343 13.6815Z" fill="currentColor"/>
</svg>
