<svg width="22" height="22" viewBox="0 0 22 22" fill="none" xmlns="http://www.w3.org/2000/svg">
<path fill-rule="evenodd" clip-rule="evenodd" d="M2.40589 2.40589C1 3.81177 1 6.0745 1 10.6V11.4C1 15.9255 1 18.1882 2.40589 19.5941C3.81177 21 6.0745 21 10.6 21H11.4C15.9255 21 18.1882 21 19.5941 19.5941C21 18.1882 21 15.9255 21 11.4V10.6C21 6.0745 21 3.81177 19.5941 2.40589C18.1882 1 15.9255 1 11.4 1H10.6C6.0745 1 3.81177 1 2.40589 2.40589ZM4.37505 7.08337C4.48338 12.2834 7.08338 15.4084 11.6417 15.4084H11.9001V12.4334C13.5751 12.6 14.8417 13.825 15.35 15.4084H17.7167C17.0667 13.0417 15.3583 11.7334 14.2916 11.2334C15.3583 10.6167 16.8583 9.11671 17.2166 7.08337H15.0666C14.5999 8.73337 13.2167 10.2334 11.9001 10.375V7.08337H9.75V12.85C8.41667 12.5167 6.73337 10.9 6.65837 7.08337H4.37505Z" fill="currentColor"/>
</svg>
